<svg version="1.2" xmlns="http://www.w3.org/2000/svg" viewBox="0 0 532 474" width="648" height="577">
	<title>aoi-img-svg</title>
	<defs>
		<clipPath clipPathUnits="userSpaceOnUse" id="cp1">
			<path d="m39 36.81h453v411h-453z"/>
		</clipPath>
		<linearGradient id="g1" x2="1" gradientUnits="userSpaceOnUse" gradientTransform="matrix(0,426.885,-33.041,0,350.792,20.946)">
			<stop offset=".02" stop-color="#ffcd00"/>
			<stop offset=".21" stop-color="#ffb600"/>
			<stop offset=".55" stop-color="#ff9200"/>
			<stop offset=".82" stop-color="#ff7c00"/>
			<stop offset="1" stop-color="#ff7500"/>
		</linearGradient>
	</defs>
	<style>
		.s0 { fill: #ffffff } 
		.s1 { fill: #000000 } 
		.s2 { fill: url(#g1) } 
	</style>
	<path id="Layer" class="s0" d="m0-157.2h532v800h-532z"/>
	<g id="Clip-Path" clip-path="url(#cp1)">
		<g id="Layer">
			<path id="Layer" class="s1" d="m403.4 134.9h-12v-42.8h-8.2v42.8h-12.1v-98.1h12.1v43h8.2v-43h12z"/>
			<path id="Layer" class="s1" d="m436.8 134.9h-28.4v-98.1h28.4v12.2h-16.4v30h11.3v11.9h-11.3v31.9h16.4v12.1z"/>
			<path id="Layer" fill-rule="evenodd" class="s1" d="m71.3 324.6q0 7.9-4.7 12.8-4.8 4.9-11.5 4.9-6.8 0-11.4-4.9-4.7-4.9-4.7-12.8v-66q0-7.8 4.7-12.7 4.8-4.9 11.5-4.9 6.8 0 11.4 4.9 4.7 4.9 4.7 12.7zm-12 0.4v-66.6q0-4.6-4.1-4.6c-2.7 0-4.2 1.5-4.2 4.6v66.6q0 4.5 4.2 4.5c2.8 0 4.1-1.5 4.1-4.5z"/>
			<path id="Layer" fill-rule="evenodd" class="s1" d="m108.6 281.2q0 7.9-4 12.1-3.9 4.2-9.9 4.2h-6.4v43.2h-12.1v-98.1h18.5q6 0 9.9 4.3 3.9 4.3 3.9 12.1v22.2zm-12-21q0-5.5-4.7-5.5h-3.5v30.9h3.5q2 0 3.4-1.5 1.3-1.5 1.3-3.9z"/>
			<path id="Layer" fill-rule="evenodd" class="s1" d="m145.8 281.2q0 7.9-4 12.1-3.9 4.2-9.9 4.2h-6.4v43.2h-12.1v-98.1h18.5q6 0 9.9 4.3 4 4.3 4 12.1v22.2zm-12.1-21q0-5.5-4.7-5.5h-3.5v30.9h3.5q2 0 3.4-1.5 1.3-1.5 1.3-3.9z"/>
			<path id="Layer" fill-rule="evenodd" class="s1" d="m183 324.6q0 7.9-4.8 12.8-4.7 4.9-11.4 4.9-6.8 0-11.5-4.9-4.6-4.9-4.6-12.8v-66q0-7.8 4.7-12.7 4.7-4.9 11.5-4.9 6.7 0 11.4 4.9 4.7 4.9 4.7 12.7zm-12.1 0.4v-66.6q0-4.6-4-4.6c-2.7 0-4.2 1.5-4.2 4.6v66.6q0 4.5 4.2 4.5c2.8 0 4-1.5 4-4.5z"/>
			<path id="Layer" fill-rule="evenodd" class="s1" d="m220.2 340.7h-12v-36.7q0-5.5-4.9-5.5h-3.4v42.2h-12v-98.1h17.6q6.4 0 10.4 4.1 4.3 4.6 4.3 12.2v22.7q0 7.6-6.1 10.6 2.8 1.1 4.5 4.4 1.6 3.2 1.6 7zm-12-80.4q0-5.5-4.7-5.5h-3.6v31h3.6q2 0 3.3-1.6 1.4-1.6 1.4-3.9z"/>
			<path id="Layer" class="s1" d="m255.4 254.7h-9.4v86h-12v-86h-9.3v-12.1h30.7v12.1z"/>
			<path id="Layer" class="s1" d="m292.2 324.6q0 7.9-4.7 12.8-4.7 4.9-11.5 4.9-6.7 0-11.4-4.9-4.7-4.9-4.7-12.8v-82h12.1v82.4q0 4.5 4.1 4.5c2.8 0 4.1-1.5 4.1-4.5v-82.4h12z"/>
			<path id="Layer" class="s1" d="m329.5 340.7h-10.8l-10.8-55.6 0.4 8.6v47h-11.1v-98.1h11.4l9.7 49.8v-8.6-41.2h11.2v98.1z"/>
			<path id="Layer" class="s1" d="m381.7 254.7h-9.4v86h-12v-86h-9.3v-12.1h30.7v12.1z"/>
			<path id="Layer" class="s1" d="m419.4 242.6l-12.1 51.7v46.4h-10.6v-46.5l-12.3-51.6h11.5l4.8 24.3 1.3 9.3 1.4-9.3 4.7-24.3z"/>
			<path id="Layer" fill-rule="evenodd" class="s1" d="m191.2 236.6l-1.8-17.5h-10.4l-1.6 17.5h-11.8l11.3-98.2h15.1l11.1 98.2zm-2.7-29.6l-4.2-44.9-0.9 10.1-3.3 34.8z"/>
			<path id="Layer" class="s1" d="m261.3 236.6h-12v-71.5l-1.4 12.3-9 59.2h-9.4l-10.5-71.5v12.1 59.4h-12v-98.1h18.5l7.6 47.4 1 11.3 1.2-11.3 7.7-47.5h18.3v98.2z"/>
			<path id="Layer" class="s1" d="m294.6 236.6h-28.4v-98.2h28.4v12.2h-16.4v30h11.3v11.9h-11.3v31.9h16.4v12.2z"/>
			<path id="Layer" fill-rule="evenodd" class="s1" d="m331.3 236.6h-12v-36.7q0-5.5-4.9-5.5h-3.3v42.1h-12.1v-98.1h17.6q6.4 0 10.4 4.2 4.3 4.6 4.3 12.2v22.6q0 7.6-6.1 10.7 2.8 1.1 4.5 4.4 1.6 3.2 1.6 7zm-12-80.4q0-5.6-4.7-5.6h-3.5v31.1h3.5q2 0 3.3-1.6 1.4-1.6 1.4-3.9z"/>
			<path id="Layer" class="s1" d="m383.9 220.5q0 7.8-4.7 12.7-4.8 4.9-11.5 4.9-6.8 0-11.4-4.9-4.7-4.9-4.7-12.7v-66q0-7.8 4.7-12.7 4.7-4.9 11.5-4.9 6.8 0 11.4 4.9 4.7 4.9 4.7 12.7v24.2h-12v-24.4q0-4.7-4.1-4.7c-2.7 0-4.2 1.5-4.2 4.7v66.5q0 4.6 4.2 4.6c2.8 0 4.1-1.5 4.1-4.6v-24.5h12v24.2z"/>
			<path id="Layer" fill-rule="evenodd" class="s1" d="m412.7 236.6l-1.8-17.5h-10.4l-1.6 17.5h-11.8l11.3-98.2h15.1l11.1 98.2zm-2.7-29.6l-4.2-44.9-0.9 10.1-3.3 34.8z"/>
			<path id="Layer" class="s1" d="m460.8 236.6h-10.8l-10.8-55.6 0.5 8.5v47.1h-11.2v-98.2h11.4l9.7 49.8v-8.5-41.3h11.2v98.2z"/>
			<path id="Layer" class="s2" d="m334.9 37.4v10.5h14.5l-14.2 14.4v385.5h10.5v-381.3l10.5-10.6v12.9h10.5v-31.4z"/>
			<path id="Layer" class="s1" d="m382.9 447.8h-10.8l-10.8-55.6 0.4 8.6v47h-11.1v-98.1h11.4l9.7 49.8v-8.6-41.2h11.2v98.1z"/>
			<path id="Layer" fill-rule="evenodd" class="s1" d="m420.2 430.8q0 7.3-4.7 12.2-4.6 4.8-11.1 4.8h-16.6v-98.1h16.6q6.5 0 11.1 4.9 4.7 4.8 4.7 12.2zm-12.1-0.5v-63.1q0-5.4-4.5-5.4h-3.7v73.9h3.7q4.5 0 4.5-5.4z"/>
			<path id="Layer" class="s1" d="m453.4 447.8h-28.3v-98.1h28.3v12.2h-16.3v30h11.3v11.9h-11.3v31.9h16.3v12.1z"/>
			<path id="Layer" class="s1" d="m492 447.8h-12l-4.2-25-1.3-11.2-1.2 11.2-4.3 25h-12l10.5-49.2-10.5-48.9h12l4.3 24.8 1.2 11.9 1.3-11.9 4.2-24.8h12l-10.6 49.1z"/>
		</g>
	</g>
</svg>